# xmcd
#
# Track frame offsets:
#	150
#	11652
#	20817
#	28717
#	34720
#	44890
#	60402
#	80825
#	91630
#	102027
#	111897
#	123102
#	137335
#	147845
#	160537
#	166080
#
# Disc length: 2416
#
# Revision: 1
# Processed by: cddbd v1.5.1PL0 Copyright (c) Steve Scherf et al.
# Submitted via: ExactAudioCopy v0.95a3
# Normalized: r0:TDELIM( - )
#
DISCID=c2096e10
DTITLE=Various Artist - Heart of Country Part 1
DYEAR=1900
DGENRE=Country
TTITLE0=Patsy Cline - I've Loved and Lost Again
TTITLE1=Frankie Laine - Rawhide
TTITLE2=George Jones - Jambalaya
TTITLE3=Jim Reeves - Have I told you lately that I love you
TTITLE4=Carl Perkins - Daddy sang bass
TTITLE5=Tina Turner - If this is our last Time
TTITLE6=Federation - Who's is on the other Line
TTITLE7=Guy Mitchell - Singing the Blues
TTITLE8=Ferlin Husky - Wings of a Dove
TTITLE9=Guy Mitchell - Rock A Billy
TTITLE10=Frankie Lane - Love is a Golden Ring
TTITLE11=George Jones - Open Pit Mine
TTITLE12=Rick Nelson - Travelin Man
TTITLE13=Farron Young - It's four in the Morning
TTITLE14=Frankie Lane - Mule Train
TTITLE15=Federation - Duelling Banjos
EXTD=
EXTT0=
EXTT1=
EXTT2=
EXTT3=
EXTT4=
EXTT5=
EXTT6=
EXTT7=
EXTT8=
EXTT9=
EXTT10=
EXTT11=
EXTT12=
EXTT13=
EXTT14=
EXTT15=
PLAYORDER=
